# xmcd
#
# Track frame offsets:
#	150
#	18476
#	37226
#	56520
#	75835
#	94635
#	113690
#	136045
#	156632
#	174412
#	200855
#	222544
#	245233
#	266203
#
# Disc length: 3760 seconds
#
# Revision: 1
# Processed by: cddbd v1.5.2PL0 Copyright (c) Steve Scherf et al.
# Submitted via: EasyCDDAExtractor 11.0.0.1
#
DISCID=cc0eae0e
DTITLE=Jeff Ramsey
DYEAR=1900
DGENRE=
TTITLE0=Give It My Best
TTITLE1=Let Me Luv U
TTITLE2=What Would U Do
TTITLE3=Movin On(4 On The Floor)
TTITLE4=I Know That U Want To(Live Bass)
TTITLE5=Anything
TTITLE6=Speechless......
TTITLE7=Want U More......
TTITLE8=2 Happy On Hold Featuring Jeff Ramsey, U-Nam
TTITLE9=Fly So High
TTITLE10=Now That I have Found U
TTITLE11=Be Careful
TTITLE12=All That U Need and More
TTITLE13=Dont Waste The Pretty Rmx
EXTD=
EXTT0=
EXTT1=
EXTT2=
EXTT3=
EXTT4=
EXTT5=
EXTT6=
EXTT7=
EXTT8=
EXTT9=
EXTT10=
EXTT11=
EXTT12=
EXTT13=
PLAYORDER=
